<svg width="660" height="80" viewBox="0 0 695 103" fill="none" xmlns="http://www.w3.org/2000/svg">
<rect width="694.358" height="102.678" fill="white"/>
<line y1="-1" x2="39.0036" y2="-1" transform="matrix(0.653585 0.756853 -0.719455 0.694539 635.18 35.8457)" stroke="black" stroke-width="2"/>
<line y1="-1" x2="38.9055" y2="-1" transform="matrix(0.687144 -0.726522 0.687144 0.726522 635.18 65.3946)" stroke="black" stroke-width="2"/>
<line x1="520.509" y1="52.7686" x2="558.316" y2="52.7686" stroke="black" stroke-width="2"/>
<rect x="588" y="35" width="20" height="28" fill="white" stroke="black" stroke-width="2"/>
<rect x="584" y="39" width="20" height="28" fill="white" stroke="black" stroke-width="2"/>
<path d="M67.8256 48.74C69.6736 48.74 71.3296 49.148 72.7936 49.964C74.2576 50.78 75.3976 51.92 76.2136 53.384C77.0536 54.848 77.4736 56.54 77.4736 58.46C77.4736 60.38 77.0536 62.084 76.2136 63.572C75.3976 65.036 74.2576 66.176 72.7936 66.992C71.3296 67.808 69.6736 68.216 67.8256 68.216C66.4096 68.216 65.1136 67.94 63.9376 67.388C62.7616 66.836 61.7896 66.032 61.0216 64.976V68H57.7096V41.288H61.1656V51.8C61.9336 50.792 62.8936 50.036 64.0456 49.532C65.1976 49.004 66.4576 48.74 67.8256 48.74ZM67.5376 65.192C68.7616 65.192 69.8536 64.916 70.8136 64.364C71.7976 63.788 72.5656 62.996 73.1176 61.988C73.6936 60.956 73.9816 59.78 73.9816 58.46C73.9816 57.14 73.6936 55.976 73.1176 54.968C72.5656 53.936 71.7976 53.144 70.8136 52.592C69.8536 52.04 68.7616 51.764 67.5376 51.764C66.3376 51.764 65.2456 52.04 64.2616 52.592C63.2776 53.144 62.5096 53.936 61.9576 54.968C61.4056 55.976 61.1296 57.14 61.1296 58.46C61.1296 59.78 61.4056 60.956 61.9576 61.988C62.5096 62.996 63.2776 63.788 64.2616 64.364C65.2456 64.916 66.3376 65.192 67.5376 65.192ZM82.2487 48.92H85.7047V68H82.2487V48.92ZM83.9767 45.248C83.3047 45.248 82.7407 45.032 82.2847 44.6C81.8527 44.168 81.6367 43.64 81.6367 43.016C81.6367 42.392 81.8527 41.864 82.2847 41.432C82.7407 40.976 83.3047 40.748 83.9767 40.748C84.6487 40.748 85.2007 40.964 85.6327 41.396C86.0887 41.804 86.3167 42.32 86.3167 42.944C86.3167 43.592 86.0887 44.144 85.6327 44.6C85.2007 45.032 84.6487 45.248 83.9767 45.248ZM97.7753 68.216C96.2153 68.216 94.7153 68.012 93.2753 67.604C91.8353 67.172 90.7073 66.632 89.8913 65.984L91.3313 63.248C92.1713 63.848 93.1913 64.328 94.3913 64.688C95.5913 65.048 96.8033 65.228 98.0273 65.228C101.051 65.228 102.563 64.364 102.563 62.636C102.563 62.06 102.359 61.604 101.951 61.268C101.543 60.932 101.027 60.692 100.403 60.548C99.8033 60.38 98.9393 60.2 97.8113 60.008C96.2753 59.768 95.0153 59.492 94.0313 59.18C93.0713 58.868 92.2433 58.34 91.5473 57.596C90.8513 56.852 90.5033 55.808 90.5033 54.464C90.5033 52.736 91.2233 51.356 92.6633 50.324C94.1033 49.268 96.0353 48.74 98.4593 48.74C99.7313 48.74 101.003 48.896 102.275 49.208C103.547 49.52 104.591 49.94 105.407 50.468L103.931 53.204C102.371 52.196 100.535 51.692 98.4233 51.692C96.9593 51.692 95.8433 51.932 95.0753 52.412C94.3073 52.892 93.9233 53.528 93.9233 54.32C93.9233 54.944 94.1393 55.436 94.5713 55.796C95.0033 56.156 95.5313 56.42 96.1553 56.588C96.8033 56.756 97.7033 56.948 98.8553 57.164C100.391 57.428 101.627 57.716 102.563 58.028C103.523 58.316 104.339 58.82 105.011 59.54C105.683 60.26 106.019 61.268 106.019 62.564C106.019 64.292 105.275 65.672 103.787 66.704C102.323 67.712 100.319 68.216 97.7753 68.216ZM121.067 66.884C120.563 67.316 119.939 67.652 119.195 67.892C118.451 68.108 117.683 68.216 116.891 68.216C114.971 68.216 113.483 67.7 112.427 66.668C111.371 65.636 110.843 64.16 110.843 62.24V51.764H107.603V48.92H110.843V44.744H114.299V48.92H119.771V51.764H114.299V62.096C114.299 63.128 114.551 63.92 115.055 64.472C115.583 65.024 116.327 65.3 117.287 65.3C118.343 65.3 119.243 65 119.987 64.4L121.067 66.884ZM125.245 41.288H128.701V68H125.245V41.288ZM152.543 58.568C152.543 58.832 152.519 59.18 152.471 59.612H136.991C137.207 61.292 137.939 62.648 139.187 63.68C140.459 64.688 142.031 65.192 143.903 65.192C146.183 65.192 148.019 64.424 149.411 62.888L151.319 65.12C150.455 66.128 149.375 66.896 148.079 67.424C146.807 67.952 145.379 68.216 143.795 68.216C141.779 68.216 139.991 67.808 138.431 66.992C136.871 66.152 135.659 64.988 134.795 63.5C133.955 62.012 133.535 60.332 133.535 58.46C133.535 56.612 133.943 54.944 134.759 53.456C135.599 51.968 136.739 50.816 138.179 50C139.643 49.16 141.287 48.74 143.111 48.74C144.935 48.74 146.555 49.16 147.971 50C149.411 50.816 150.527 51.968 151.319 53.456C152.135 54.944 152.543 56.648 152.543 58.568ZM143.111 51.656C141.455 51.656 140.063 52.16 138.935 53.168C137.831 54.176 137.183 55.496 136.991 57.128H149.231C149.039 55.52 148.379 54.212 147.251 53.204C146.147 52.172 144.767 51.656 143.111 51.656ZM163.763 48.74C166.403 48.74 168.419 49.388 169.811 50.684C171.227 51.98 171.935 53.912 171.935 56.48V68H168.659V65.48C168.083 66.368 167.255 67.052 166.175 67.532C165.119 67.988 163.859 68.216 162.395 68.216C160.259 68.216 158.543 67.7 157.247 66.668C155.975 65.636 155.339 64.28 155.339 62.6C155.339 60.92 155.951 59.576 157.175 58.568C158.399 57.536 160.343 57.02 163.007 57.02H168.479V56.336C168.479 54.848 168.047 53.708 167.183 52.916C166.319 52.124 165.047 51.728 163.367 51.728C162.239 51.728 161.135 51.92 160.055 52.304C158.975 52.664 158.063 53.156 157.319 53.78L155.879 51.188C156.863 50.396 158.039 49.796 159.407 49.388C160.775 48.956 162.227 48.74 163.763 48.74ZM162.971 65.552C164.291 65.552 165.431 65.264 166.391 64.688C167.351 64.088 168.047 63.248 168.479 62.168V59.504H163.151C160.223 59.504 158.759 60.488 158.759 62.456C158.759 63.416 159.131 64.172 159.875 64.724C160.619 65.276 161.651 65.552 162.971 65.552ZM196.688 48.92V65.408C196.688 68.744 195.86 71.204 194.204 72.788C192.548 74.396 190.076 75.2 186.788 75.2C184.988 75.2 183.272 74.948 181.64 74.444C180.008 73.964 178.688 73.268 177.68 72.356L179.336 69.692C180.224 70.46 181.316 71.06 182.612 71.492C183.932 71.948 185.288 72.176 186.68 72.176C188.912 72.176 190.556 71.648 191.612 70.592C192.692 69.536 193.232 67.928 193.232 65.768V64.256C192.416 65.24 191.408 65.984 190.208 66.488C189.032 66.968 187.748 67.208 186.356 67.208C184.532 67.208 182.876 66.824 181.388 66.056C179.924 65.264 178.772 64.172 177.932 62.78C177.092 61.364 176.672 59.756 176.672 57.956C176.672 56.156 177.092 54.56 177.932 53.168C178.772 51.752 179.924 50.66 181.388 49.892C182.876 49.124 184.532 48.74 186.356 48.74C187.796 48.74 189.128 49.004 190.352 49.532C191.6 50.06 192.62 50.84 193.412 51.872V48.92H196.688ZM186.752 64.184C188 64.184 189.116 63.92 190.1 63.392C191.108 62.864 191.888 62.132 192.44 61.196C193.016 60.236 193.304 59.156 193.304 57.956C193.304 56.108 192.692 54.62 191.468 53.492C190.244 52.34 188.672 51.764 186.752 51.764C184.808 51.764 183.224 52.34 182 53.492C180.776 54.62 180.164 56.108 180.164 57.956C180.164 59.156 180.44 60.236 180.992 61.196C181.568 62.132 182.348 62.864 183.332 63.392C184.34 63.92 185.48 64.184 186.752 64.184ZM221.076 48.92V68H217.8V65.12C217.104 66.104 216.18 66.872 215.028 67.424C213.9 67.952 212.664 68.216 211.32 68.216C208.776 68.216 206.772 67.52 205.308 66.128C203.844 64.712 203.112 62.636 203.112 59.9V48.92H206.568V59.504C206.568 61.352 207.012 62.756 207.9 63.716C208.788 64.652 210.06 65.12 211.716 65.12C213.54 65.12 214.98 64.568 216.036 63.464C217.092 62.36 217.62 60.8 217.62 58.784V48.92H221.076ZM244.899 58.568C244.899 58.832 244.875 59.18 244.827 59.612H229.347C229.563 61.292 230.295 62.648 231.543 63.68C232.815 64.688 234.387 65.192 236.259 65.192C238.539 65.192 240.375 64.424 241.767 62.888L243.675 65.12C242.811 66.128 241.731 66.896 240.435 67.424C239.163 67.952 237.735 68.216 236.151 68.216C234.135 68.216 232.347 67.808 230.787 66.992C229.227 66.152 228.015 64.988 227.151 63.5C226.311 62.012 225.891 60.332 225.891 58.46C225.891 56.612 226.299 54.944 227.115 53.456C227.955 51.968 229.095 50.816 230.535 50C231.999 49.16 233.643 48.74 235.467 48.74C237.291 48.74 238.911 49.16 240.327 50C241.767 50.816 242.883 51.968 243.675 53.456C244.491 54.944 244.899 56.648 244.899 58.568ZM235.467 51.656C233.811 51.656 232.419 52.16 231.291 53.168C230.187 54.176 229.539 55.496 229.347 57.128H241.587C241.395 55.52 240.735 54.212 239.607 53.204C238.503 52.172 237.123 51.656 235.467 51.656ZM246.176 68H264.176V70.232H246.176V68ZM275.497 68.288C273.505 68.288 271.729 67.784 270.169 66.776C268.633 65.744 267.421 64.256 266.533 62.312C265.645 60.368 265.201 58.064 265.201 55.4C265.201 52.736 265.645 50.432 266.533 48.488C267.421 46.544 268.633 45.068 270.169 44.06C271.729 43.028 273.505 42.512 275.497 42.512C277.465 42.512 279.217 43.028 280.753 44.06C282.313 45.068 283.537 46.544 284.425 48.488C285.313 50.432 285.757 52.736 285.757 55.4C285.757 58.064 285.313 60.368 284.425 62.312C283.537 64.256 282.313 65.744 280.753 66.776C279.217 67.784 277.465 68.288 275.497 68.288ZM275.497 65.084C277.513 65.084 279.121 64.256 280.321 62.6C281.545 60.944 282.157 58.544 282.157 55.4C282.157 52.256 281.545 49.856 280.321 48.2C279.121 46.544 277.513 45.716 275.497 45.716C273.457 45.716 271.825 46.544 270.601 48.2C269.401 49.856 268.801 52.256 268.801 55.4C268.801 58.544 269.401 60.944 270.601 62.6C271.825 64.256 273.457 65.084 275.497 65.084ZM311.136 61.808H306.348V68H302.856V61.808H288.852V59.288L301.74 42.8H305.628L293.28 58.712H302.964V53.24H306.348V58.712H311.136V61.808Z" fill="black"/>
</svg>
